<svg width="24" height="24" viewBox="0 0 24 24" fill="none" xmlns="http://www.w3.org/2000/svg">
<path d="M5.75489 14.1988L4.97374 17.115L2.11862 17.1754C1.26536 15.5927 0.781372 13.782 0.781372 11.8578C0.781372 9.99716 1.23389 8.24251 2.036 6.69751H2.03661L4.57847 7.16352L5.69195 9.69013C5.4589 10.3696 5.33188 11.0989 5.33188 11.8578C5.33197 12.6815 5.48117 13.4707 5.75489 14.1988Z" fill="#FBBB00"/>
<path d="M23.0268 9.76196C23.1557 10.4407 23.2229 11.1417 23.2229 11.8581C23.2229 12.6615 23.1384 13.4451 22.9775 14.201C22.4313 16.7731 21.004 19.0191 19.0268 20.6085L19.0262 20.6079L15.8246 20.4445L15.3715 17.6159C16.6834 16.8465 17.7087 15.6424 18.2488 14.201H12.2488V9.76196H18.3364H23.0268Z" fill="#518EF8"/>
<path d="M19.026 20.6079L19.0266 20.6085C17.1037 22.1541 14.661 23.0789 12.0019 23.0789C7.7288 23.0789 4.01362 20.6905 2.11841 17.1757L5.75469 14.1991C6.70227 16.7281 9.14187 18.5283 12.0019 18.5283C13.2313 18.5283 14.383 18.196 15.3712 17.6159L19.026 20.6079Z" fill="#28B446"/>
<path d="M19.1642 3.22056L15.5292 6.19652C14.5064 5.5572 13.2973 5.18788 12.002 5.18788C9.07723 5.18788 6.59201 7.07074 5.69189 9.69039L2.0365 6.69778H2.03589C3.90336 3.09727 7.66539 0.637329 12.002 0.637329C14.7246 0.637329 17.2209 1.60714 19.1642 3.22056Z" fill="#F14336"/>
</svg>
