<svg width="200" height="28" viewBox="0 0 200 28" fill="none" xmlns="http://www.w3.org/2000/svg">
<g clip-path="url(#clip0_5483_466)">
<path d="M54.5676 7.17434C54.0508 6.75887 53.3618 6.48528 52.5308 6.34341C52.3484 6.30288 52.1458 6.29274 51.9228 6.28261H51.8012C51.6391 6.26234 51.5074 6.26234 51.3959 6.26234H46.6738C46.0253 6.26234 45.4984 6.78927 45.4984 7.4378V19.2836C45.4984 19.9321 46.0253 20.459 46.6738 20.459H46.8663C47.5149 20.459 48.0418 19.9321 48.0418 19.2836V15.5748H51.3756C51.5074 15.5748 51.6796 15.5748 51.9026 15.5545C52.1255 15.5444 52.3282 15.514 52.5207 15.4937C53.3415 15.3721 54.0305 15.0884 54.5676 14.6628C55.1148 14.2372 55.5303 13.7002 55.7836 13.0618C56.0471 12.4132 56.1788 11.6938 56.1788 10.9338C56.1788 10.1738 56.0471 9.42392 55.7836 8.80579C55.5201 8.14713 55.1148 7.59993 54.5676 7.1946V7.17434ZM53.453 11.8356C53.453 11.8356 53.453 11.8559 53.453 11.866C53.3719 12.1295 53.23 12.3727 53.0172 12.6058C52.8044 12.8388 52.5207 13.0111 52.1559 13.0922C52.0242 13.1226 51.8823 13.153 51.6796 13.1631C51.5479 13.1732 51.4162 13.1834 51.3047 13.1834H48.0519V8.66393H51.3047C51.4263 8.66393 51.5682 8.66392 51.7303 8.68419C51.8823 8.68419 52.0242 8.70446 52.1559 8.75512C52.5308 8.84632 52.8146 9.00846 53.0172 9.25165C53.23 9.47459 53.382 9.74818 53.4631 10.0623C53.5543 10.3663 53.605 10.6602 53.605 10.9439C53.605 11.2276 53.5543 11.5316 53.4631 11.8356H53.453Z" fill="#1E3A5F"/>
<path d="M58.7932 5.97861H58.5905C57.9413 5.97861 57.415 6.50488 57.415 7.15406V19.2937C57.415 19.9429 57.9413 20.4692 58.5905 20.4692H58.7932C59.4423 20.4692 59.9686 19.9429 59.9686 19.2937V7.15406C59.9686 6.50488 59.4423 5.97861 58.7932 5.97861Z" fill="#1E3A5F"/>
<path d="M70.2539 11.4911C69.8992 10.7717 69.352 10.2549 68.6224 9.94072C67.903 9.62659 67.0619 9.47459 66.1297 9.47459C64.863 9.47459 63.8497 9.75832 63.1201 10.3055C62.654 10.6501 62.2892 11.0554 62.0257 11.5114C61.8838 11.7444 61.8636 12.018 61.9548 12.2815C62.0662 12.5855 62.3398 12.8388 62.6742 12.9402L62.7958 12.9807C62.9073 13.0111 63.0187 13.0314 63.1302 13.0314C63.5254 13.0314 63.9611 12.8186 64.4678 12.393C64.5793 12.2916 64.6907 12.2207 64.8123 12.17C65.2278 11.9572 65.6737 11.8559 66.1297 11.8559C66.8897 11.8559 67.4267 12.018 67.7307 12.3423C67.9638 12.5754 68.1056 12.9503 68.1563 13.4367C67.7611 13.4975 67.3862 13.5482 67.0214 13.609C66.3526 13.69 65.7446 13.8015 65.167 13.913C64.5793 14.0244 64.0929 14.146 63.6774 14.2879C63.0998 14.4906 62.6337 14.7439 62.2892 15.0276C61.9345 15.3215 61.6609 15.6863 61.4886 16.122C61.3164 16.5273 61.2252 17.0036 61.2252 17.5204C61.2252 18.1183 61.3569 18.6553 61.6406 19.1518C61.9041 19.6382 62.3094 20.0334 62.8769 20.3577C63.4038 20.6516 64.0523 20.7934 64.8529 20.7934C65.8155 20.7934 66.6262 20.611 67.2646 20.2564C67.6902 20.0132 68.0854 19.6788 68.4299 19.2734V19.77C68.4299 20.1753 68.7643 20.5097 69.1696 20.5097H69.5547C70.1728 20.5097 70.6896 20.003 70.6896 19.3849V13.9636C70.6896 13.5076 70.6693 13.082 70.6288 12.697C70.5883 12.322 70.4768 11.937 70.2843 11.5012L70.2539 11.4911ZM65.2987 18.6857C64.9542 18.6857 64.6603 18.6351 64.4171 18.5236C64.1638 18.402 64.0017 18.2601 63.8902 18.0879C63.7686 17.9055 63.7179 17.6927 63.7179 17.4495C63.7179 17.2367 63.7585 17.0644 63.8497 16.9124C63.951 16.7604 64.0827 16.6185 64.255 16.4969C64.4273 16.3753 64.6502 16.274 64.9137 16.1727C65.1873 16.0916 65.5115 16.0004 65.8763 15.9295C66.2411 15.8585 66.6769 15.7775 67.1835 15.6863C67.4774 15.6457 67.8016 15.5849 68.1563 15.5241C68.1563 15.666 68.1563 15.8281 68.136 16.0207C68.1259 16.3855 68.055 16.7097 67.9334 17.0239C67.8624 17.2468 67.7206 17.49 67.4875 17.7535C67.2848 18.0068 66.991 18.2297 66.6262 18.4223C66.2817 18.5945 65.8459 18.6857 65.319 18.6857H65.2987Z" fill="#1E3A5F"/>
<path d="M81.0154 9.76846H80.9951C80.5391 9.77859 80.1338 10.0826 79.9818 10.5183L79.9615 10.4981C79.8703 10.3967 79.7791 10.2954 79.6575 10.2245C78.9685 9.72792 78.1072 9.48473 77.0938 9.48473C76.0805 9.48473 75.1989 9.73806 74.4491 10.2245C73.6992 10.7109 73.1317 11.3695 72.7061 12.241C72.3008 13.0922 72.1083 14.0346 72.1083 15.1289C72.1083 16.2233 72.3008 17.1556 72.7061 18.0068C73.1115 18.858 73.6891 19.5369 74.4085 20.0334C75.1381 20.53 76.0096 20.7732 76.9925 20.7732C77.9754 20.7732 78.8874 20.53 79.5866 20.0537V20.8542C79.5967 21.3406 79.5055 21.7257 79.3029 22.05C79.1104 22.3641 78.8266 22.6073 78.4618 22.7694C78.0666 22.9417 77.6512 23.0228 77.1952 23.0228C76.8 23.0228 76.425 22.9316 76.0704 22.7593C76.0298 22.739 75.9792 22.7188 75.9285 22.6782C75.4624 22.3945 75.0672 22.2526 74.7024 22.2526C74.52 22.2526 74.3376 22.2932 74.1856 22.3641L73.9931 22.4654C73.6587 22.6276 73.4357 22.9316 73.3749 23.2659C73.3243 23.5497 73.4155 23.8233 73.6283 24.0361C73.7397 24.1475 73.8613 24.259 74.0032 24.3705C74.4389 24.715 74.9355 24.9886 75.4725 25.171C75.9994 25.3534 76.577 25.4446 77.185 25.4446C77.9856 25.4446 78.7253 25.3331 79.3738 25.1102C80.0325 24.8873 80.5999 24.5529 81.0559 24.107C81.5119 23.651 81.8159 23.0734 81.9781 22.3844C82.0287 22.1513 82.0591 21.9081 82.0895 21.6548C82.1098 21.4116 82.1301 21.1481 82.1301 20.8846V10.9034C82.1301 10.2853 81.6335 9.77859 81.0154 9.76846ZM78.8266 18.0473C78.4618 18.3209 77.9856 18.4527 77.3776 18.4527C76.7696 18.4527 76.3136 18.3108 75.9386 18.0169C75.5536 17.7231 75.28 17.338 75.0874 16.8313C74.905 16.3449 74.8139 15.7673 74.8139 15.1087C74.8139 14.45 74.9051 13.9231 75.0976 13.4164C75.2901 12.9098 75.584 12.5044 75.969 12.2106C76.3642 11.9066 76.8608 11.7546 77.4586 11.7546C78.0565 11.7546 78.4922 11.8964 78.8469 12.17C79.2117 12.4538 79.4751 12.8388 79.6373 13.3354C79.8095 13.8218 79.9007 14.4196 79.9007 15.1087C79.9007 15.7977 79.8197 16.3753 79.6373 16.882C79.4751 17.3684 79.2016 17.7535 78.8266 18.0575V18.0473Z" fill="#1E3A5F"/>
<path d="M85.2409 6.02928H85.0484C84.3999 6.02928 83.8729 6.55621 83.8729 7.20474C83.8729 7.85327 84.3999 8.3802 85.0484 8.3802H85.2409C85.8894 8.3802 86.4164 7.85327 86.4164 7.20474C86.4164 6.55621 85.8894 6.02928 85.2409 6.02928Z" fill="#1E3A5F"/>
<path d="M85.251 9.76845H85.0484C84.3992 9.76845 83.8729 10.2947 83.8729 10.9439V19.2836C83.8729 19.9328 84.3992 20.459 85.0484 20.459H85.251C85.9002 20.459 86.4265 19.9328 86.4265 19.2836V10.9439C86.4265 10.2947 85.9002 9.76845 85.251 9.76845Z" fill="#1E3A5F"/>
<path d="M96.8638 11.4911C96.5091 10.7717 95.962 10.2549 95.2324 9.94072C94.5129 9.62659 93.6718 9.47459 92.7396 9.47459C91.4729 9.47459 90.4596 9.75832 89.73 10.3055C89.2639 10.6501 88.8991 11.0554 88.6356 11.5114C88.4937 11.7444 88.4735 12.018 88.5647 12.2815C88.6761 12.5855 88.9497 12.8287 89.2841 12.9402L89.4057 12.9807C89.5172 13.0111 89.6287 13.0314 89.7401 13.0314C90.1353 13.0314 90.5711 12.8186 91.0777 12.393C91.1892 12.2916 91.3007 12.2207 91.4223 12.17C91.8377 11.9572 92.2836 11.8559 92.7396 11.8559C93.4996 11.8559 94.0366 12.018 94.3406 12.3423C94.5737 12.5754 94.7156 12.9503 94.7662 13.4367C94.371 13.4975 93.9961 13.5482 93.6313 13.609C92.9625 13.69 92.3545 13.8015 91.7769 13.913C91.1892 14.0244 90.7028 14.146 90.2873 14.2879C89.7097 14.4906 89.2436 14.7439 88.8991 15.0276C88.5343 15.3215 88.2708 15.6863 88.0985 16.122C87.9263 16.5273 87.8351 17.0036 87.8351 17.5204C87.8351 18.1183 87.9668 18.6553 88.2505 19.1518C88.514 19.6382 88.9193 20.0334 89.4868 20.3577C90.0137 20.6516 90.6623 20.7934 91.4628 20.7934C92.4254 20.7934 93.2361 20.611 93.8745 20.2564C94.3001 20.0132 94.6953 19.6788 95.0398 19.2734V19.77C95.0398 20.1753 95.3742 20.5097 95.7795 20.5097H96.1646C96.7827 20.5097 97.2894 20.003 97.2894 19.3849V13.9636C97.2894 13.5076 97.2691 13.082 97.2286 12.697C97.1982 12.322 97.0766 11.937 96.8841 11.5012L96.8638 11.4911ZM91.8884 18.6857C91.5439 18.6857 91.25 18.6351 91.0068 18.5236C90.7535 18.402 90.5913 18.2601 90.4799 18.0879C90.3583 17.9055 90.3076 17.6927 90.3076 17.4495C90.3076 17.2367 90.3481 17.0644 90.4393 16.9124C90.5407 16.7604 90.6724 16.6185 90.8447 16.4969C91.0169 16.3753 91.2399 16.274 91.5033 16.1727C91.7769 16.0916 92.1012 16.0004 92.466 15.9295C92.8308 15.8585 93.2665 15.7775 93.7732 15.6863C94.067 15.6457 94.3913 15.5849 94.746 15.5241C94.746 15.666 94.746 15.8281 94.7257 16.0207C94.7156 16.3855 94.6446 16.7097 94.523 17.0239C94.4521 17.2468 94.3102 17.49 94.0772 17.7535C93.8745 18.0068 93.5806 18.2297 93.2158 18.4223C92.8713 18.5945 92.4356 18.6857 91.9086 18.6857H91.8884Z" fill="#1E3A5F"/>
<path d="M103.825 9.71777H103.694C103.359 9.73804 103.025 9.80897 102.701 9.90017C102.376 10.0015 102.082 10.1434 101.819 10.3258C101.485 10.5386 101.221 10.7818 101.008 11.0655C100.978 11.106 100.948 11.1466 100.927 11.1871V10.4879C100.927 10.0724 100.603 9.74817 100.188 9.74817H99.8025C99.1742 9.74817 98.6574 10.265 98.6574 10.8932V19.2836C98.6574 19.9321 99.1843 20.459 99.8329 20.459H100.036C100.684 20.459 101.211 19.9321 101.211 19.2836V15.0276C101.211 14.6324 101.262 14.2676 101.353 13.9433C101.454 13.5887 101.596 13.2948 101.778 13.0516C101.981 12.7881 102.245 12.5652 102.549 12.4132C102.853 12.2308 103.197 12.1194 103.592 12.089C104.15 12.0383 104.758 11.6026 104.758 10.9844V10.7311C104.758 10.1738 104.362 9.73804 103.815 9.73804L103.825 9.71777Z" fill="#1E3A5F"/>
<path d="M107.534 6.02928H107.342C106.693 6.02928 106.166 6.55621 106.166 7.20474C106.166 7.85327 106.693 8.3802 107.342 8.3802H107.534C108.183 8.3802 108.71 7.85327 108.71 7.20474C108.71 6.55621 108.183 6.02928 107.534 6.02928Z" fill="#1E3A5F"/>
<path d="M107.342 9.76845H107.534C108.183 9.76845 108.71 10.2954 108.71 10.9439V19.2836C108.71 19.9321 108.183 20.459 107.534 20.459H107.342C106.693 20.459 106.166 19.9321 106.166 19.2836V10.9439C106.166 10.2954 106.693 9.76845 107.342 9.76845Z" fill="#1E3A5F"/>
<path d="M117.576 14.7844C117.576 14.7844 117.556 14.7844 117.546 14.7844C117.059 14.5209 116.411 14.2777 115.56 14.0548C114.749 13.8521 114.131 13.6697 113.715 13.538C113.239 13.3658 113.036 13.2239 112.945 13.1428C112.824 13.0111 112.763 12.8591 112.763 12.6868C112.763 12.3727 112.915 12.1295 113.219 11.9471C113.492 11.785 113.837 11.7039 114.263 11.7039C114.334 11.7039 114.415 11.7039 114.496 11.7039C115.053 11.7343 115.499 11.8762 115.823 12.1194C115.854 12.1396 115.884 12.1599 115.924 12.2004C116.34 12.5652 116.857 13.0111 117.434 13.0111C117.495 13.0111 117.566 13.0111 117.627 12.9908L117.88 12.9402C118.225 12.8794 118.519 12.6666 118.671 12.3828C118.792 12.1396 118.802 11.866 118.671 11.6228C118.559 11.3999 118.417 11.1668 118.235 10.9439C117.84 10.4676 117.323 10.1028 116.654 9.83938C116.026 9.58605 115.286 9.45432 114.445 9.45432C113.604 9.45432 112.844 9.59618 112.226 9.85964C111.608 10.113 111.111 10.498 110.746 11.0047C110.392 11.5215 110.209 12.1092 110.209 12.7679C110.209 13.3151 110.331 13.7812 110.564 14.1663C110.797 14.5412 111.172 14.8756 111.719 15.1695C112.256 15.4431 112.966 15.6964 113.837 15.9295C114.729 16.1625 115.246 16.3145 115.59 16.4463C116.036 16.5983 116.208 16.7401 116.279 16.8415C116.38 16.9529 116.421 17.1252 116.421 17.3481C116.421 17.7028 116.279 17.9865 115.995 18.1892C115.712 18.3918 115.296 18.4932 114.749 18.4932C114.121 18.4932 113.614 18.3513 113.209 18.0676C113.067 17.9662 112.945 17.8446 112.854 17.7433C112.418 17.2265 111.962 16.9732 111.516 16.9732C111.456 16.9732 111.405 16.9732 111.344 16.9833L111.01 17.034C110.655 17.0948 110.351 17.3076 110.189 17.6015C110.057 17.8548 110.047 18.1284 110.169 18.3817C110.422 18.9593 110.827 19.4457 111.375 19.8409C112.195 20.4286 113.28 20.7326 114.587 20.7326C115.894 20.7326 117.049 20.4084 117.83 19.8004C118.64 19.1721 119.025 18.331 119.025 17.2265C119.025 16.6591 118.914 16.1828 118.671 15.7876C118.448 15.3823 118.063 15.0377 117.546 14.7641L117.576 14.7844Z" fill="#1E3A5F"/>
<path d="M131.519 9.51512C130.81 9.51512 130.152 9.67725 129.574 10.0015C129.067 10.2852 128.652 10.6602 128.328 11.1263C128.064 10.6602 127.72 10.2954 127.294 10.0421C126.757 9.69752 126.078 9.51512 125.277 9.51512C124.548 9.51512 123.889 9.67725 123.291 10.0015C122.947 10.1839 122.633 10.4474 122.318 10.7919C122.258 10.2244 121.771 9.76845 121.184 9.76845C120.545 9.76845 120.039 10.2751 120.039 10.9135V19.3038C120.039 19.9524 120.565 20.4793 121.214 20.4793H121.427C122.075 20.4793 122.602 19.9524 122.602 19.3038V13.2948C122.602 13.2948 122.602 13.2746 122.592 13.2543C122.653 13.1834 122.714 13.0922 122.754 12.9908C122.835 12.778 122.957 12.5754 123.109 12.393C123.453 12.0079 123.909 11.8052 124.477 11.8052C125.044 11.8052 125.531 12.0079 125.855 12.3828C126.189 12.778 126.362 13.3354 126.362 14.0244V19.3038C126.362 19.9524 126.889 20.4793 127.537 20.4793H127.72C128.368 20.4793 128.895 19.9524 128.895 19.3038V13.4164C128.895 13.4164 128.895 13.3455 128.865 13.3455C128.915 13.2847 128.996 13.1834 129.047 13.0415C129.077 12.9503 129.108 12.8692 129.158 12.778C129.321 12.4639 129.543 12.2207 129.827 12.0586C130.131 11.8863 130.445 11.8052 130.79 11.8052C131.367 11.8052 131.823 11.9978 132.168 12.3828C132.502 12.7679 132.675 13.305 132.675 13.994V19.2937C132.675 19.9422 133.202 20.4692 133.85 20.4692H134.043C134.691 20.4692 135.218 19.9422 135.218 19.2937V13.3962C135.218 12.2511 134.894 11.3087 134.266 10.5994C133.627 9.87992 132.705 9.51512 131.499 9.51512H131.519Z" fill="#1E3A5F"/>
<path d="M148.006 13.3657C148.006 13.3657 147.976 13.3556 147.966 13.3455C147.571 13.0719 147.165 12.8591 146.75 12.7071C146.324 12.545 145.929 12.4234 145.584 12.3322L143.082 11.633C142.767 11.5519 142.453 11.4404 142.149 11.3188C141.845 11.1871 141.612 11.025 141.42 10.8223C141.227 10.6196 141.136 10.3663 141.136 10.042C141.136 9.70765 141.247 9.41378 141.47 9.15032C141.714 8.88685 142.028 8.68419 142.403 8.56259C142.788 8.42072 143.213 8.34979 143.669 8.34979C144.146 8.35992 144.571 8.45112 144.987 8.63352C145.402 8.80579 145.747 9.06925 146.03 9.40365C146.111 9.49485 146.182 9.58605 146.243 9.68738C146.588 10.2143 147.084 10.5386 147.56 10.5386C147.621 10.5386 147.682 10.5386 147.753 10.5183L148.118 10.4575C148.462 10.3967 148.766 10.1839 148.928 9.89004C149.07 9.61645 149.08 9.32258 148.959 9.03885C148.756 8.60312 148.523 8.22819 148.239 7.89379C147.712 7.26553 147.064 6.78927 146.314 6.47514C145.574 6.15087 144.693 5.97861 143.71 5.96848C142.737 5.96848 141.876 6.12047 141.085 6.42447C140.295 6.72847 139.656 7.20473 139.19 7.84313C138.724 8.47139 138.491 9.25165 138.491 10.1636C138.491 10.8122 138.592 11.3391 138.805 11.7647C139.018 12.1903 139.292 12.5551 139.616 12.8287C139.94 13.0922 140.285 13.305 140.66 13.4772C141.024 13.6191 141.369 13.7407 141.683 13.842L145.301 14.906C145.534 14.9769 145.767 15.0681 145.959 15.1796C146.172 15.2911 146.304 15.3924 146.415 15.514C146.537 15.6356 146.628 15.7775 146.679 15.9295C146.74 16.0815 146.77 16.2537 146.77 16.426C146.77 16.8313 146.638 17.1657 146.375 17.4596C146.132 17.7332 145.797 17.946 145.351 18.1081C144.936 18.2601 144.48 18.331 143.983 18.331C143.163 18.331 142.453 18.1182 141.805 17.6724C141.43 17.4191 141.146 17.0948 140.913 16.6895C140.629 16.1828 140.153 15.8585 139.667 15.8585C139.606 15.8585 139.555 15.8585 139.494 15.8687L139.099 15.9295C138.765 15.9801 138.461 16.1727 138.299 16.4463C138.147 16.6996 138.116 16.9935 138.218 17.2772C138.41 17.7838 138.663 18.25 138.978 18.635C139.515 19.3038 140.204 19.8308 141.035 20.1854C141.876 20.5401 142.818 20.7225 143.842 20.7225C144.531 20.7225 145.23 20.6313 145.929 20.4489C146.618 20.2564 147.196 19.9929 147.712 19.618C148.249 19.2329 148.665 18.7668 148.949 18.2297C149.263 17.642 149.425 17.0036 149.425 16.274C149.425 15.5444 149.303 14.9871 149.03 14.4905C148.766 14.0244 148.432 13.6393 148.037 13.3556L148.006 13.3657Z" fill="#1E3A5F"/>
<path d="M158.515 10.3258C158.515 10.3258 158.494 10.2852 158.474 10.2751C157.694 9.75831 156.741 9.49484 155.647 9.49484C154.552 9.49484 153.661 9.73804 152.87 10.2143C152.07 10.6906 151.452 11.3492 150.996 12.2308C150.55 13.1023 150.317 14.1257 150.317 15.2708C150.317 16.4159 150.54 17.2974 150.996 18.1385C151.452 18.9694 152.1 19.6281 152.921 20.0942C153.732 20.5604 154.694 20.7934 155.768 20.7934C156.843 20.7934 157.714 20.5401 158.596 19.9929C159.123 19.6686 159.548 19.2734 159.893 18.7972C160.075 18.554 160.126 18.25 160.034 17.9662C159.923 17.6318 159.639 17.3684 159.285 17.267L159.001 17.186C158.9 17.1556 158.788 17.1353 158.677 17.1353C158.281 17.1353 157.856 17.3481 157.491 17.7028C157.349 17.8446 157.207 17.9561 157.065 18.0372C156.67 18.2804 156.204 18.3918 155.627 18.3918C154.755 18.3918 154.117 18.1182 153.661 17.5609C153.336 17.1556 153.124 16.5983 153.032 15.9092H158.484C158.585 15.9092 158.697 15.8889 158.727 15.8383C158.839 15.8788 158.94 15.9092 159.041 15.9092H159.508C159.822 15.9092 160.126 15.7876 160.338 15.5647C160.541 15.362 160.642 15.0884 160.642 14.7945C160.622 13.9433 160.47 13.1631 160.197 12.4842C159.812 11.5418 159.264 10.8426 158.515 10.3359V10.3258ZM157.532 12.474C157.785 12.8084 157.957 13.2847 158.038 13.8927H153.134C153.245 13.3455 153.428 12.8996 153.681 12.5855C154.137 12.0079 154.816 11.7242 155.748 11.7242C156.559 11.7242 157.167 11.9775 157.532 12.474Z" fill="#1E3A5F"/>
<path d="M170.492 11.4911C170.137 10.7717 169.59 10.2549 168.861 9.94072C168.141 9.62659 167.3 9.47459 166.368 9.47459C165.101 9.47459 164.088 9.75832 163.358 10.3055C162.892 10.6501 162.527 11.0554 162.264 11.5114C162.122 11.7444 162.102 12.018 162.193 12.2815C162.304 12.5855 162.578 12.8287 162.912 12.9402L163.034 12.9807C163.145 13.0111 163.257 13.0314 163.368 13.0314C163.764 13.0314 164.199 12.8186 164.706 12.393C164.817 12.2916 164.929 12.2207 165.05 12.1599C165.466 11.9471 165.912 11.8458 166.368 11.8458C167.138 11.8458 167.655 12.0079 167.969 12.3322C168.202 12.5652 168.344 12.9402 168.394 13.4266C168.009 13.4874 167.624 13.538 167.259 13.5988C166.591 13.6799 165.973 13.7914 165.405 13.9028C164.817 14.0143 164.331 14.1359 163.916 14.2778C163.338 14.4804 162.872 14.7338 162.527 15.0175C162.173 15.3113 161.899 15.6761 161.727 16.1119C161.554 16.5273 161.463 16.9935 161.463 17.5103C161.463 18.1081 161.595 18.6452 161.879 19.1417C162.142 19.6281 162.548 20.0233 163.115 20.3476C163.642 20.6414 164.29 20.7833 165.091 20.7833C166.054 20.7833 166.864 20.6009 167.503 20.2462C167.928 20.003 168.323 19.6686 168.668 19.2633V19.7598C168.668 20.1652 169.002 20.4996 169.408 20.4996H169.793C170.411 20.4996 170.918 19.9929 170.918 19.3748V13.9535C170.918 13.4975 170.897 13.0719 170.857 12.6868C170.826 12.3119 170.705 11.9268 170.512 11.4911H170.492ZM165.537 18.6857C165.192 18.6857 164.898 18.6351 164.645 18.5236C164.392 18.402 164.23 18.2601 164.118 18.0879C163.997 17.9055 163.946 17.6927 163.946 17.4495C163.946 17.2367 163.986 17.0644 164.078 16.9124C164.179 16.7604 164.311 16.6185 164.483 16.4969C164.655 16.3753 164.878 16.2639 165.142 16.1727C165.415 16.0916 165.729 16.0004 166.084 15.9295C166.449 15.8585 166.885 15.7775 167.391 15.6863C167.685 15.6457 168.009 15.5849 168.364 15.5241C168.364 15.666 168.364 15.8281 168.344 16.0207C168.334 16.3855 168.263 16.7097 168.141 17.0036C168.141 17.0239 168.141 17.0441 168.141 17.0543C168.07 17.2671 167.928 17.5001 167.715 17.7433C167.513 17.9967 167.219 18.2196 166.854 18.4121C166.51 18.5844 166.074 18.6756 165.547 18.6756L165.537 18.6857Z" fill="#1E3A5F"/>
<path d="M178.011 9.71777H177.879C177.545 9.73804 177.21 9.80897 176.886 9.90017C176.562 10.0015 176.268 10.1434 176.004 10.3258C175.67 10.5386 175.407 10.7818 175.194 11.0655C175.163 11.106 175.133 11.1466 175.113 11.1871V10.4879C175.113 10.0826 174.778 9.74817 174.373 9.74817H173.988C173.36 9.74817 172.853 10.265 172.853 10.8932V19.2836C172.853 19.9321 173.38 20.459 174.028 20.459H174.231C174.88 20.459 175.407 19.9321 175.407 19.2836V15.0276C175.407 14.6324 175.457 14.2676 175.548 13.9433C175.64 13.5988 175.792 13.2948 175.974 13.0516C176.177 12.7881 176.44 12.5652 176.744 12.4132C177.048 12.2308 177.393 12.1194 177.788 12.089C178.345 12.0383 178.953 11.6026 178.953 10.9844V10.7311C178.953 10.1738 178.558 9.73804 177.991 9.73804L178.011 9.71777Z" fill="#1E3A5F"/>
<path d="M182.753 12.3119C182.753 12.3119 182.784 12.3119 182.794 12.2916C183.179 12.0079 183.655 11.8762 184.233 11.8762C184.739 11.8762 185.206 12.0282 185.611 12.322C185.783 12.4538 185.915 12.5754 186.016 12.7172C186.381 13.1631 186.837 13.4265 187.273 13.4265C187.374 13.4265 187.486 13.4164 187.577 13.386L187.911 13.3049C188.246 13.2138 188.519 12.9807 188.651 12.6767C188.762 12.4234 188.752 12.1498 188.631 11.8964C188.327 11.2986 187.891 10.7919 187.344 10.3967C186.503 9.77858 185.469 9.46445 184.263 9.46445C183.189 9.46445 182.247 9.70765 181.466 10.194C180.686 10.6703 180.068 11.3391 179.642 12.2004C179.217 13.0618 179.004 14.0345 179.004 15.0985C179.004 16.1625 179.217 17.1252 179.632 17.9865C180.058 18.8478 180.656 19.5268 181.426 20.0132C182.196 20.4996 183.128 20.7428 184.253 20.7428C185.439 20.7428 186.452 20.4489 187.283 19.8612C187.8 19.4964 188.225 19.0302 188.57 18.4222C188.722 18.1588 188.732 17.8548 188.6 17.571C188.458 17.2569 188.164 17.0239 187.82 16.9529L187.506 16.882C187.425 16.8617 187.344 16.8516 187.252 16.8516C186.807 16.8516 186.351 17.1151 186.016 17.5609C185.925 17.6825 185.814 17.794 185.662 17.9156C185.337 18.179 184.871 18.3209 184.263 18.3209C183.402 18.3209 182.774 18.0372 182.348 17.4393C181.922 16.8516 181.699 16.0511 181.699 15.0783C181.699 14.4703 181.791 13.9028 181.973 13.3961C182.135 12.9503 182.388 12.5855 182.753 12.3018V12.3119Z" fill="#1E3A5F"/>
<path d="M199.919 13.5076C199.888 13.1327 199.797 12.7071 199.645 12.1903C199.493 11.714 199.26 11.2682 198.966 10.873C198.642 10.4474 198.227 10.1028 197.72 9.84952C197.193 9.58605 196.524 9.45432 195.754 9.45432C194.751 9.45432 193.9 9.67725 193.211 10.1231C192.927 10.3055 192.663 10.5183 192.42 10.7818V7.4074C192.42 6.77914 191.914 6.26234 191.275 6.26234C190.637 6.26234 190.13 6.77914 190.13 7.4074V19.2734C190.13 19.922 190.657 20.4489 191.306 20.4489H191.518C192.167 20.4489 192.694 19.922 192.694 19.2734L192.714 14.0852C192.714 14.0852 192.765 13.994 192.775 13.9332C192.816 13.7407 192.856 13.5786 192.907 13.4164C193.049 13.001 193.231 12.697 193.454 12.4842C193.687 12.2511 193.94 12.089 194.214 11.9978C194.498 11.9066 194.771 11.8559 195.065 11.8559C195.602 11.8559 196.018 11.9674 196.322 12.2004C196.646 12.4436 196.879 12.7375 197.031 13.082C197.203 13.4671 197.305 13.8319 197.335 14.2169C197.386 14.6121 197.406 14.9668 197.406 15.3012V19.2836C197.406 19.9321 197.933 20.459 198.581 20.459H198.794C199.443 20.459 199.97 19.9321 199.97 19.2836V14.5007C199.97 14.2473 199.949 13.9129 199.899 13.4975L199.919 13.5076Z" fill="#1E3A5F"/>
<path d="M15.2911 21.1884C16.4868 22.3842 17.7737 23.5089 19.0809 24.4919C18.1284 25.2823 17.1759 26.022 16.2031 26.6908C14.7135 27.7446 12.7476 27.7446 11.2682 26.6908C9.33273 25.3431 7.41754 23.7319 5.58342 21.8978C3.75944 20.0535 2.14825 18.1282 0.790394 16.213C-0.263465 14.7234 -0.263465 12.7576 0.790394 11.2781C2.13812 9.34266 3.7493 7.41734 5.58342 5.59335C7.42767 3.7491 9.33273 2.13792 11.2682 0.790193C12.7578 -0.243399 14.7236 -0.243399 16.2031 0.790193C17.1759 1.45899 18.1284 2.19872 19.0809 2.99924C17.7535 3.97203 16.4868 5.08669 15.2911 6.28242C13.8015 7.772 12.4639 9.35279 11.3188 10.9842C10.1738 12.636 10.1738 14.845 11.3188 16.4866C12.474 18.1282 13.8015 19.7191 15.2911 21.1884Z" fill="#F36F5A"/>
<path d="M34.0578 15.0073C32.9229 16.6489 31.5853 18.2196 30.0957 19.7092C28.6264 21.1988 27.0253 22.5262 25.404 23.6713C24.6339 24.1982 23.6003 24.1982 22.8403 23.6713C22.6883 23.5699 22.5262 23.4483 22.3843 23.3369C20.9251 22.2729 19.4963 21.0468 18.1486 19.7092C16.659 18.2196 15.3316 16.6388 14.1865 15.0175C13.6596 14.2474 13.6596 13.2138 14.1865 12.4538C15.3316 10.8122 16.659 9.24152 18.1486 7.75194C19.4862 6.41435 20.9251 5.18822 22.3843 4.1445C22.5363 4.0229 22.6985 3.91143 22.8403 3.8101C23.2254 3.54664 23.6814 3.39464 24.1272 3.39464C24.5731 3.39464 25.0291 3.54664 25.4142 3.8101C27.0557 4.94503 28.6264 6.28261 30.1059 7.76207C31.5752 9.24152 32.9229 10.8324 34.068 12.4639C34.5949 13.234 34.5949 14.2474 34.068 15.0175L34.0578 15.0073Z" fill="url(#paint0_linear_5483_466)"/>
</g>
<defs>
<linearGradient id="paint0_linear_5483_466" x1="21.2708" y1="15.6734" x2="40.5802" y2="7.1313" gradientUnits="userSpaceOnUse">
<stop stop-color="#03B1CA"/>
<stop offset="1" stop-color="#067DA6"/>
</linearGradient>
<clipPath id="clip0_5483_466">
<rect width="200" height="27.4712" fill="white"/>
</clipPath>
</defs>
</svg>
