<svg width="600" height="270" viewBox="0 0 600 270" fill="none" xmlns="http://www.w3.org/2000/svg">
<path fill-rule="evenodd" clip-rule="evenodd" d="M126.235 207.401C115.81 207.383 107.243 198.816 107.224 188.39V81.6093C107.243 71.184 115.81 62.617 126.235 62.5984H473.765C484.19 62.617 492.757 71.184 492.776 81.6093V188.372C492.757 198.797 484.19 207.364 473.765 207.383H126.235V207.401Z" fill="#015A75"/>
<path fill-rule="evenodd" clip-rule="evenodd" d="M126.235 65.5718C117.445 65.5904 110.197 72.8194 110.197 81.6094V188.372C110.216 197.162 117.445 204.409 126.235 204.409H237.922V65.5718H126.235ZM396.173 162.206L398.551 158.861C400.261 160.645 402.64 161.649 405.111 161.649C407.527 161.649 408.698 160.534 408.698 159.363C408.698 157.858 406.784 157.412 404.517 156.854C401.134 156.092 396.823 155.163 396.823 150.461C396.823 147.023 399.796 144.18 404.647 144.18C407.936 144.18 410.649 145.165 412.693 147.061L410.24 150.276C408.586 148.807 406.449 148.008 404.238 148.027C402.361 148.027 401.302 148.863 401.302 150.09C401.302 151.428 403.197 151.855 405.409 152.375C408.791 153.175 413.139 154.197 413.139 158.88C413.139 162.652 410.445 165.495 404.888 165.495C400.93 165.458 398.068 164.157 396.173 162.206ZM377.366 162.206L379.745 158.861C381.455 160.645 383.833 161.649 386.305 161.649C388.721 161.649 389.891 160.534 389.891 159.363C389.891 157.858 387.977 157.412 385.729 156.854C382.347 156.092 378.035 155.163 378.035 150.461C378.035 147.023 381.009 144.18 385.859 144.18C389.13 144.18 391.861 145.165 393.905 147.061L391.471 150.276C389.817 148.807 387.68 148.008 385.469 148.027C383.592 148.027 382.532 148.863 382.532 150.09C382.532 151.428 384.428 151.855 386.639 152.375C390.022 153.175 394.37 154.197 394.37 158.88C394.37 162.652 391.675 165.495 386.119 165.495C382.142 165.458 379.299 164.157 377.366 162.206ZM308.886 162.206L311.265 158.861C312.974 160.645 315.353 161.649 317.825 161.649C320.241 161.649 321.411 160.534 321.411 159.363C321.411 157.858 319.497 157.412 317.23 156.854C313.848 156.092 309.536 155.163 309.536 150.461C309.536 147.023 312.51 144.18 317.36 144.18C320.649 144.18 323.363 145.165 325.407 147.061L322.954 150.276C321.3 148.807 319.163 148.008 316.951 148.027C315.074 148.027 314.015 148.863 314.015 150.09C314.015 151.428 315.892 151.855 318.122 152.375C321.504 153.175 325.853 154.197 325.853 158.88C325.853 162.652 323.158 165.495 317.602 165.495C313.662 165.458 310.819 164.157 308.886 162.206ZM287.366 156.891V144.477H291.864V156.724C291.864 159.604 293.555 161.574 296.714 161.574C299.873 161.574 301.546 159.586 301.546 156.724V144.477H306.043V156.854C306.043 161.983 303.014 165.477 296.732 165.477C290.47 165.495 287.366 161.965 287.366 156.891ZM351.981 165.124L342.15 151.669V165.124H337.765V144.477H342.262L351.832 157.412V144.477H356.218V165.105H351.981V165.124ZM329.068 165.124V144.477H333.453V165.105H329.068V165.124ZM360.511 165.124V144.477H375.136V148.343H364.915V152.71H374.913V156.575H364.915V161.24H375.118V165.105L360.511 165.124ZM266.664 165.124V144.477H277.517C281.457 144.477 283.464 146.986 283.464 149.737C283.464 152.338 281.847 154.067 279.914 154.475C282.107 154.81 283.854 156.947 283.854 159.53C283.854 162.615 281.791 165.105 277.852 165.105L266.664 165.124ZM279.375 158.935C279.375 157.635 278.446 156.52 276.718 156.52H271.069V161.314H276.718C278.372 161.314 279.375 160.404 279.375 158.935ZM278.985 150.499C278.985 149.253 277.963 148.25 276.737 148.25C276.681 148.25 276.625 148.25 276.569 148.25H271.069V152.747H276.569C278.056 152.747 278.985 151.818 278.985 150.517V150.499ZM287.05 119.371C287.05 113.034 291.845 108.686 298.033 108.686C301.638 108.593 304.983 110.563 306.656 113.74L302.884 115.599C301.954 113.796 300.096 112.625 298.052 112.588C294.317 112.588 291.585 115.469 291.585 119.334C291.585 123.199 294.298 126.08 298.052 126.08C300.096 126.061 301.973 124.909 302.902 123.088L306.656 124.965C305.169 127.529 302.568 130.02 298.033 130.02C291.864 130.038 287.05 125.727 287.05 119.371ZM308.514 119.371C308.514 113.034 313.309 108.686 319.497 108.686C323.102 108.593 326.447 110.563 328.12 113.74L324.347 115.599C323.4 113.777 321.541 112.625 319.497 112.588C315.762 112.588 313.03 115.469 313.03 119.334C313.03 123.199 315.743 126.08 319.497 126.08C321.541 126.061 323.418 124.909 324.347 123.088L328.12 124.909C326.633 127.474 324.032 129.964 319.497 129.964C313.327 130.038 308.514 125.727 308.514 119.371ZM342.634 129.685L338.582 122.382H335.367V129.685H330.982V109.057H340.627C344.919 109.057 347.558 111.863 347.558 115.71C347.558 119.353 345.272 121.341 343.061 121.843L347.707 129.722L342.634 129.685ZM280.899 129.685L279.636 126.191H270.79L269.489 129.685H264.471L272.462 109.057H277.963L285.917 129.685H280.899ZM436.926 129.685V109.057H445.066C451.533 109.057 456.012 113.164 456.012 119.39C456.012 125.615 451.514 129.685 445.066 129.685H436.926ZM418.677 129.685V109.057H433.302V112.923H423.063V117.29H433.042V121.155H423.063V125.82H433.265V129.685H418.677ZM391.768 129.685V109.057H396.154V129.685H391.768ZM369.338 129.685V109.057H377.478C383.945 109.057 388.423 113.164 388.423 119.39C388.423 125.615 383.926 129.685 377.478 129.685H369.338ZM351.089 129.685V109.057H365.714V112.923H355.475V117.29H365.473V121.155H355.475V125.82H365.677V129.685H351.089ZM405.223 129.685V112.923H399.183V109.057H415.648V112.923H409.646V129.685H405.223ZM451.551 119.39C451.551 115.747 449.303 112.923 445.084 112.923H441.349V125.82H445.084C449.136 125.82 451.514 122.883 451.514 119.39H451.551ZM383.963 119.39C383.963 115.747 381.715 112.923 377.496 112.923H373.761V125.82H377.496C381.547 125.82 383.926 122.883 383.926 119.39H383.963ZM275.213 113.443L271.998 122.326H278.428L275.213 113.443ZM343.061 115.692C343.061 113.963 341.742 112.904 339.976 112.904H335.367V118.479H339.976C341.742 118.479 343.061 117.438 343.061 115.692Z" fill="white"/>
<path fill-rule="evenodd" clip-rule="evenodd" d="M153.423 181.886C156.359 183.187 157.79 184.042 158.348 187.684C159.295 194.04 153.442 196.456 147.922 196.456H134.988V168.729H148.034C152.717 168.729 156.991 170.866 156.991 176.088C156.991 178.69 155.635 180.585 153.423 181.886ZM179.328 181.886C182.265 183.187 183.696 184.042 184.253 187.684C185.201 194.04 179.347 196.456 173.828 196.456H160.894V168.729H173.939C178.622 168.729 182.897 170.866 182.897 176.088C182.897 178.69 181.54 180.585 179.328 181.886ZM210.159 187.703C209.601 184.06 208.151 183.206 205.234 181.905C207.445 180.604 208.82 178.708 208.82 176.088C208.82 170.866 204.546 168.729 199.863 168.729H186.818V196.474H199.752C205.252 196.474 211.125 194.058 210.159 187.703ZM213.764 189.821V189.766C213.764 186.253 216.644 183.373 220.156 183.373C223.669 183.373 226.549 186.253 226.549 189.747V189.803C226.549 193.315 223.669 196.195 220.156 196.195C216.663 196.214 213.782 193.334 213.764 189.821ZM225.973 189.803V189.747C225.954 186.569 223.334 183.949 220.156 183.949C216.96 183.949 214.34 186.569 214.34 189.766V189.821C214.358 192.999 216.979 195.619 220.156 195.619C223.353 195.619 225.973 192.999 225.973 189.803ZM217.648 186.328H220.584C221.29 186.29 221.996 186.551 222.535 187.015C222.888 187.35 223.074 187.814 223.074 188.279V188.316C223.074 189.375 222.368 190.007 221.383 190.249L223.409 192.888H222.201L220.305 190.416H218.633V192.888H217.666L217.648 186.328ZM148.461 191.215H140.879V184.897H148.461C154.018 184.897 153.683 191.215 148.461 191.215ZM174.367 191.215H166.803V184.897H174.367C179.923 184.897 179.589 191.215 174.367 191.215ZM192.709 184.897V191.215H200.272C205.494 191.215 205.829 184.897 200.272 184.897H192.709ZM220.491 189.543C221.402 189.543 222.052 189.115 222.052 188.372V188.335C222.052 187.647 221.494 187.201 220.547 187.201H218.614V189.543H220.491ZM140.879 174.025H147.681C151.918 174.025 152.067 179.935 147.941 179.935H140.879V174.025ZM192.727 174.025H199.473C203.71 174.025 203.859 179.935 199.733 179.935H192.69L192.727 174.025ZM166.822 174.025H173.605C177.842 174.025 177.99 179.935 173.865 179.935H166.803L166.822 174.025ZM147.514 156.315H160.132L162.38 163.972H183.008L185.257 156.315H197.875L196.221 150.684H149.167L147.514 156.315ZM162.789 110.953L156.675 119.39C153.609 123.608 154.557 131.097 158.738 134.108L170.074 142.285C172.025 143.697 172.174 145.091 171.245 146.559L172.899 147.785L178.641 139.832C182.19 134.907 181.874 128.235 176.615 124.389L165.168 116.045C163.811 115.041 163.663 113.647 164.406 112.105L162.789 110.953ZM172.601 73.7114L163.087 86.8871C158.626 93.0568 160.243 103.594 166.339 108.091L181.986 119.576C185.164 121.898 185.573 127.845 183.268 130.874L184.588 131.878L195.385 116.695C200.235 109.875 199.956 99.7841 192.337 94.2648L175.593 82.0925C173.252 80.4014 172.081 77.5024 174.032 74.7335L172.601 73.7114Z" fill="#015A75"/>
</svg>
