<svg width="600" height="270" viewBox="0 0 600 270" fill="none" xmlns="http://www.w3.org/2000/svg">
<g clip-path="url(#clip0_5507_515)">
<path d="M93.4883 134.896C93.4883 126.708 87.373 119.971 79.4957 119.038C78.1483 124.117 77.5264 129.403 77.5264 134.896C77.5264 140.39 78.2519 145.676 79.4957 150.754C87.373 149.718 93.4883 143.084 93.4883 134.896Z" fill="#E02B26"/>
<path d="M102.713 129.817C100.019 129.817 97.7383 132.098 97.7383 134.793C97.7383 137.487 99.915 139.768 102.713 139.768C105.408 139.768 107.689 137.487 107.689 134.793C107.792 132.098 105.512 129.817 102.713 129.817Z" fill="#E02B26"/>
<path d="M171.951 134.896C171.951 143.084 178.066 149.822 185.943 150.754C187.291 145.676 187.913 140.39 187.913 134.896C187.913 129.403 187.187 124.117 185.943 119.038C178.066 119.971 171.951 126.708 171.951 134.896Z" fill="#E02B26"/>
<path d="M162.622 129.817C159.824 129.817 157.647 132.098 157.647 134.793C157.647 137.487 159.927 139.768 162.622 139.768C165.317 139.768 167.597 137.487 167.597 134.793C167.701 132.098 165.421 129.817 162.622 129.817Z" fill="#E02B26"/>
<path d="M132.564 174.283C124.376 174.283 117.638 180.398 116.706 188.275C121.784 189.623 127.07 190.244 132.564 190.244C138.057 190.244 143.343 189.519 148.422 188.275C147.489 180.398 140.752 174.283 132.564 174.283Z" fill="#E02B26"/>
<path d="M132.564 159.979C129.765 159.979 127.589 162.259 127.589 164.954C127.589 167.649 129.765 169.929 132.564 169.929C135.259 169.929 137.539 167.649 137.539 164.954C137.539 162.259 135.363 159.979 132.564 159.979Z" fill="#E02B26"/>
<path d="M132.564 95.717C140.752 95.717 147.489 89.6017 148.422 81.7244C143.343 80.377 138.057 79.7551 132.564 79.7551C127.07 79.7551 121.784 80.4807 116.706 81.7244C117.742 89.6017 124.479 95.717 132.564 95.717Z" fill="#E02B26"/>
<path d="M132.564 100.07C129.765 100.07 127.589 102.35 127.589 105.045C127.589 107.74 129.765 110.02 132.564 110.02C135.259 110.02 137.539 107.74 137.539 105.045C137.539 102.247 135.363 100.07 132.564 100.07Z" fill="#E02B26"/>
<path d="M160.342 162.674C154.537 168.478 154.123 177.496 158.994 183.818C168.219 178.429 175.993 170.655 181.382 161.43C175.267 156.455 166.146 156.973 160.342 162.674Z" fill="#E02B26"/>
<path d="M150.288 152.516C148.319 154.486 148.319 157.595 150.288 159.565C152.257 161.534 155.367 161.534 157.336 159.565C159.305 157.595 159.305 154.486 157.336 152.516C155.367 150.547 152.257 150.547 150.288 152.516Z" fill="#E02B26"/>
<path d="M104.89 107.118C110.695 101.314 111.109 92.2966 106.238 85.974C97.013 91.3637 89.2393 99.1374 83.8496 108.362C90.0685 113.337 99.0859 112.923 104.89 107.118Z" fill="#E02B26"/>
<path d="M107.896 110.124C105.927 112.093 105.927 115.203 107.896 117.172C109.865 119.142 112.975 119.142 114.944 117.172C116.913 115.203 116.913 112.093 114.944 110.124C113.078 108.258 109.865 108.258 107.896 110.124Z" fill="#E02B26"/>
<path d="M160.342 107.118C166.146 112.923 175.164 113.337 181.486 108.466C176.097 99.241 168.323 91.4674 159.098 86.0776C154.123 92.2966 154.538 101.314 160.342 107.118Z" fill="#E02B26"/>
<path d="M157.336 117.276C159.305 115.307 159.305 112.197 157.336 110.228C155.367 108.258 152.257 108.258 150.288 110.228C148.319 112.197 148.319 115.307 150.288 117.276C152.257 119.142 155.367 119.142 157.336 117.276Z" fill="#E02B26"/>
<path d="M104.89 162.674C99.0856 156.87 90.0682 156.455 83.7456 161.327C89.1353 170.551 96.909 178.325 106.134 183.715C111.005 177.496 110.591 168.375 104.89 162.674Z" fill="#E02B26"/>
<path d="M107.896 152.516C105.927 154.486 105.927 157.595 107.896 159.565C109.865 161.534 112.975 161.534 114.944 159.565C116.913 157.595 116.913 154.486 114.944 152.516C113.078 150.547 109.865 150.547 107.896 152.516Z" fill="#E02B26"/>
<path d="M261.296 158.321C261.296 169.1 254.248 173.246 243.572 173.246H243.365C232.689 173.246 225.641 169.307 225.641 158.321V116.136C225.641 105.667 232.689 101.21 243.365 101.21H243.572C254.248 101.21 261.296 105.667 261.296 116.136V124.428H249.583V117.898C249.583 113.026 247.2 111.472 243.468 111.472C239.737 111.472 237.353 113.026 237.353 117.898V156.455C237.353 161.327 239.737 162.881 243.468 162.881C247.2 162.881 249.583 161.327 249.583 156.455V148.267H261.296V158.321Z" fill="#E02B26"/>
<path d="M302.548 156.662H289.695L287.208 172.313H276.014L289.073 102.04H303.792L317.059 172.313H305.243L302.548 156.662ZM301.097 147.023L296.225 115.825L291.354 147.023H301.097Z" fill="#E02B26"/>
<path d="M332.813 172.313V102.04H344.422L359.243 145.572V102.04H369.816V172.313H358.829L343.489 126.604V172.313H332.813Z" fill="#E02B26"/>
<path d="M411.793 172.313H398.941L385.777 102.04H397.593L405.678 154.175L413.866 102.04H425.06L411.793 172.313Z" fill="#E02B26"/>
<path d="M459.886 156.662H447.034L444.546 172.313H433.352L446.412 102.04H461.13L474.397 172.313H462.581L459.886 156.662ZM458.331 147.023L453.46 115.825L448.588 147.023H458.331Z" fill="#E02B26"/>
<path d="M510.882 122.666V117.38C510.882 112.923 508.394 111.368 504.974 111.368C501.553 111.368 499.066 112.923 499.066 117.38V122.147C499.066 125.775 500.309 127.33 503.626 129.299L511.814 133.963C518.552 137.798 522.594 140.908 522.594 148.474V158.632C522.594 169.411 515.857 173.35 505.181 173.35H504.974C494.298 173.35 487.561 169.618 487.561 158.632V151.169H498.962V157.077C498.962 161.43 501.45 163.296 504.974 163.296C508.498 163.296 510.985 161.43 510.985 157.077V151.584C510.985 147.956 509.845 146.194 506.321 144.225L498.237 139.56C491.396 135.622 487.457 132.409 487.457 125.05V115.825C487.457 105.356 495.127 101.314 504.766 101.314H504.974C514.613 101.314 522.283 105.356 522.283 115.825V122.769L510.882 122.666Z" fill="#E02B26"/>
</g>
<defs>
<clipPath id="clip0_5507_515">
<rect width="445.171" height="110.697" fill="white" transform="translate(77.4229 79.6515)"/>
</clipPath>
</defs>
</svg>
