<svg width="600" height="270" viewBox="0 0 600 270" fill="none" xmlns="http://www.w3.org/2000/svg">
<g clip-path="url(#clip0_5507_546)">
<path d="M309.192 124.347C313.793 124.347 317.435 126.379 319.325 128.666H319.607V125.532H327.652V160.109C327.652 174.335 319.269 180.15 309.333 180.15C299.991 180.15 294.373 173.912 292.256 168.803L299.624 165.726C300.922 168.859 304.14 172.557 309.333 172.557C315.684 172.557 319.607 168.633 319.607 161.266V158.5H319.325C317.435 160.843 313.793 162.876 309.192 162.876C299.567 162.876 290.733 154.492 290.733 143.682C290.733 132.871 299.567 124.347 309.192 124.347ZM226.657 124.319C237.299 124.319 245.992 132.42 245.992 143.598C245.992 154.69 237.327 162.876 226.657 162.876C215.988 162.876 207.323 154.69 207.323 143.598C207.323 132.505 215.988 124.319 226.657 124.319ZM268.376 124.319C279.046 124.319 287.712 132.42 287.712 143.598C287.712 154.69 279.046 162.876 268.376 162.876C257.707 162.876 249.042 154.69 249.042 143.598C249.042 132.505 257.707 124.319 268.376 124.319ZM362.653 124.319C372.588 124.32 377.555 132.279 379.136 136.569L380.011 138.771L354.241 149.44C356.217 153.307 359.266 155.283 363.584 155.283C367.902 155.283 370.895 153.166 373.068 149.949L379.645 154.323C377.528 157.456 372.419 162.876 363.584 162.876C352.632 162.876 344.475 154.408 344.475 143.598C344.475 132.138 352.717 124.319 362.653 124.319ZM176.105 103.009C185.222 103.009 191.715 106.594 196.598 111.251L190.84 117.009C187.339 113.735 182.598 111.166 176.105 111.166C164.053 111.166 154.654 120.876 154.654 132.901C154.654 144.925 164.081 154.634 176.105 154.634C183.924 154.634 188.356 151.502 191.207 148.651C193.521 146.336 195.046 143.034 195.639 138.517H176.105V130.417H203.655C203.937 131.828 204.05 133.522 204.05 135.356C204.05 141.482 202.384 149.074 196.965 154.465C191.715 159.941 184.997 162.848 176.105 162.848C159.622 162.848 145.763 149.413 145.763 132.929C145.763 116.445 159.622 103.009 176.105 103.009ZM464.405 124.855C469.712 124.855 474.059 126.662 477.503 130.247C481.002 133.831 482.752 138.375 482.752 143.851C482.752 149.327 481.002 153.928 477.503 157.456C474.059 161.041 469.684 162.847 464.405 162.847C459.127 162.847 454.724 161.041 451.224 157.456C447.78 153.872 446.059 149.327 446.059 143.851C446.059 138.375 447.78 133.831 451.224 130.247C454.724 126.662 459.099 124.855 464.405 124.855ZM505.137 124.855C508.778 124.855 511.94 125.758 514.678 127.593C517.388 129.4 519.42 131.912 520.803 135.129L514.678 137.669C512.787 133.21 509.456 130.98 504.714 130.98C501.666 130.98 499.012 132.222 496.783 134.678C494.609 137.162 493.508 140.21 493.508 143.851C493.508 147.492 494.609 150.541 496.783 153.025C499.012 155.509 501.666 156.722 504.714 156.722C509.625 156.722 513.069 154.492 515.045 150.033L521 152.573C519.702 155.763 517.641 158.275 514.847 160.11C512.052 161.916 508.807 162.847 505.137 162.847C499.859 162.847 495.455 161.041 491.956 157.456C488.512 153.759 486.79 149.242 486.79 143.851C486.79 138.46 488.512 133.831 491.956 130.247C495.455 126.662 499.831 124.855 505.137 124.855ZM539.599 124.855C542.76 124.855 545.611 125.617 548.151 127.113C550.692 128.609 552.469 130.642 553.487 133.154L547.53 135.638C546.853 134.142 545.752 132.956 544.228 132.109C542.704 131.263 540.981 130.839 539.091 130.839C537.341 130.839 535.788 131.291 534.405 132.138C533.022 133.013 532.345 134.085 532.345 135.327C532.345 137.36 534.264 138.827 538.103 139.702L543.494 141.086C550.579 142.835 554.105 146.391 554.105 151.783C554.105 154.887 552.753 157.512 550.043 159.63C547.332 161.775 543.917 162.819 539.796 162.819C536.211 162.819 533.05 161.888 530.34 160.025C527.631 158.162 525.683 155.706 524.526 152.629L530.482 150.089C531.357 152.234 532.627 153.872 534.292 155.085C535.958 156.271 537.792 156.864 539.796 156.864C541.941 156.864 543.719 156.412 545.131 155.48C546.57 154.549 547.276 153.477 547.276 152.206C547.276 149.92 545.526 148.255 542.027 147.182L535.901 145.658C528.958 143.908 525.486 140.577 525.486 135.609C525.486 132.363 526.812 129.738 529.437 127.791C532.091 125.815 535.478 124.855 539.599 124.855ZM340.917 161.691H332.647V105.21H340.917V161.691ZM416.026 109.585C423.985 109.585 430.365 111.984 435.192 116.783C440.018 121.581 442.417 127.875 442.417 135.637C442.417 143.4 440.018 149.751 435.192 154.521C430.365 159.291 423.985 161.69 416.026 161.69H400.078V109.585H416.026ZM464.405 130.98C461.159 130.98 458.393 132.194 456.107 134.622C453.877 136.992 452.748 140.069 452.748 143.851C452.748 147.69 453.877 150.795 456.107 153.166C458.337 155.537 461.103 156.722 464.405 156.722C467.708 156.722 470.474 155.537 472.704 153.166C474.934 150.795 476.063 147.69 476.063 143.851C476.063 140.013 474.933 136.992 472.704 134.622C470.417 132.194 467.652 130.98 464.405 130.98ZM226.686 131.912C220.843 131.912 215.819 136.654 215.819 143.598C215.819 150.541 220.843 155.283 226.686 155.283C232.528 155.283 237.553 150.456 237.553 143.598C237.553 136.654 232.528 131.912 226.686 131.912ZM268.376 131.912C262.534 131.912 257.51 136.654 257.51 143.598C257.51 150.541 262.534 155.283 268.376 155.283C274.219 155.283 279.243 150.456 279.243 143.598C279.243 136.654 274.219 131.912 268.376 131.912ZM309.954 131.94C304.196 131.94 299.229 136.907 299.229 143.682C299.229 150.456 304.111 155.282 309.954 155.283C315.797 155.283 320.229 150.399 320.229 143.682C320.229 136.907 315.712 131.94 309.954 131.94ZM406.768 155.283H415.998C422.066 155.283 426.836 153.561 430.336 150.089C433.837 146.617 435.587 141.819 435.587 135.637C435.587 129.456 433.837 124.714 430.336 121.242C426.836 117.742 422.066 115.992 415.998 115.992H406.768V155.283ZM362.935 131.771C358.644 131.771 352.66 135.582 352.858 143.005L370.076 135.864C369.116 133.465 366.265 131.771 362.935 131.771Z" fill="#787879"/>
<mask id="mask0_5507_546" style="mask-type:luminance" maskUnits="userSpaceOnUse" x="45" y="86" width="72" height="98">
<path d="M116.699 86.1342H45.8057V183.616H116.699V86.1342Z" fill="white"/>
</mask>
<g mask="url(#mask0_5507_546)">
<path d="M100.27 183.616H62.2003C57.2468 183.616 54.77 183.616 52.8052 182.838C51.3982 182.281 50.1202 181.441 49.0501 180.371C47.98 179.301 47.1406 178.023 46.5836 176.616C45.8057 174.651 45.8057 172.175 45.8057 167.221V102.529C45.8057 97.5753 45.8057 95.0986 46.5836 93.1338C47.1407 91.7268 47.9801 90.4488 49.0502 89.3787C50.1202 88.3087 51.3982 87.4692 52.8052 86.9121C54.77 86.1342 57.2468 86.1342 62.2003 86.1342H83.469L113.818 116.483C114.738 117.403 115.197 117.863 115.551 118.383C116.062 119.135 116.413 119.983 116.582 120.876C116.7 121.494 116.7 122.151 116.699 123.464C116.679 150.559 116.667 150.826 116.666 167.203C116.666 172.169 116.666 174.652 115.888 176.617C115.331 178.023 114.492 179.302 113.422 180.371C112.352 181.441 111.073 182.281 109.667 182.838C107.702 183.616 105.225 183.616 100.27 183.616Z" fill="url(#paint0_linear_5507_546)"/>
<path d="M113.929 116.595C112.541 115.553 110.816 114.936 108.947 114.936H90.5584C86.643 114.936 83.4688 111.762 83.4688 107.846V86.1343L113.929 116.595Z" fill="#76BBFF"/>
<path d="M95.6544 144.845H66.853C65.0176 144.845 63.5298 146.333 63.5298 148.168C63.5298 150.003 65.0176 151.491 66.853 151.491H95.6544C97.4896 151.491 98.9779 150.003 98.9779 148.168C98.9779 146.333 97.4896 144.845 95.6544 144.845Z" fill="white"/>
<path d="M86.7924 160.907H66.853C65.0176 160.907 63.5298 162.395 63.5298 164.23C63.5298 166.066 65.0176 167.553 66.853 167.553H86.7924C88.6278 167.553 90.1157 166.066 90.1157 164.23C90.1157 162.395 88.6278 160.907 86.7924 160.907Z" fill="white"/>
</g>
</g>
<defs>
<linearGradient id="paint0_linear_5507_546" x1="81.2522" y1="108.399" x2="60.6786" y2="174.13" gradientUnits="userSpaceOnUse">
<stop offset="0.33" stop-color="#3186FF"/>
<stop offset="1" stop-color="#A9A8FF"/>
</linearGradient>
<clipPath id="clip0_5507_546">
<rect width="508.405" height="97.7313" fill="white" transform="translate(45.8057 86.1342)"/>
</clipPath>
</defs>
</svg>
