<svg width="600" height="270" viewBox="0 0 600 270" fill="none" xmlns="http://www.w3.org/2000/svg">
<g clip-path="url(#clip0_5507_583)">
<path d="M173.925 189.306V150.619C173.925 142.532 170.596 138.487 163.939 138.487C157.282 138.486 153.951 142.53 153.948 150.619V189.306H134.324V150.619C134.324 142.532 131.053 138.487 124.512 138.487C117.852 138.487 114.524 142.531 114.527 150.619V189.306H94.9023V148.336C94.9023 139.895 97.8227 133.507 103.663 129.172C108.804 125.302 115.755 123.367 124.515 123.365C133.395 123.365 139.936 125.651 144.139 130.224C147.759 125.651 154.36 123.365 163.941 123.365C172.702 123.365 179.651 125.3 184.79 129.172C190.63 133.503 193.551 139.891 193.551 148.336V189.306H173.925Z" fill="#F27F22"/>
<path d="M414.452 189.126V78.6122H434.097V189.126H414.452Z" fill="#F27F22"/>
<path d="M389.42 189.126V182.615C387.663 184.96 384.682 186.837 380.477 188.246C376.732 189.532 373.166 190.176 369.778 190.181C360.425 190.181 352.915 186.954 347.246 180.5C341.578 174.047 338.743 166.07 338.739 156.569C338.739 147.187 341.5 139.312 347.071 132.989C352.002 127.395 360.019 123.486 369.253 123.486C379.655 123.486 385.731 127.406 389.42 131.932V78.6122H408.539V189.126H389.42ZM389.42 152.347C389.42 148.828 387.753 145.455 384.42 142.226C381.087 138.998 377.668 137.385 374.163 137.385C369.137 137.385 365.162 139.439 362.239 143.546C359.667 147.187 358.381 151.645 358.382 156.919C358.382 162.084 359.667 166.483 362.239 170.116C365.161 174.343 369.136 176.454 374.163 176.451C377.202 176.451 380.504 175.014 384.07 172.141C387.636 169.267 389.42 166.305 389.42 163.255V152.347Z" fill="#F27F22"/>
<path d="M301.743 190.885C291.803 190.885 283.59 187.717 277.104 181.381C270.618 175.044 267.373 166.889 267.369 156.916C267.369 146.949 270.614 138.796 277.104 132.458C283.594 126.12 291.807 122.952 301.743 122.955C311.676 122.955 319.918 126.122 326.467 132.458C333.017 138.794 336.29 146.946 336.288 156.916C336.288 166.893 333.015 175.048 326.467 181.381C319.92 187.714 311.678 190.882 301.743 190.885ZM301.743 138.795C297.007 138.795 293.368 140.594 290.825 144.191C288.282 147.788 287.013 152.061 287.017 157.012C287.017 161.961 288.199 166.146 290.563 169.567C293.284 173.458 297.011 175.402 301.745 175.397C306.478 175.393 310.204 173.45 312.924 169.567C315.407 166.149 316.648 161.964 316.648 157.012C316.648 152.059 315.466 147.874 313.102 144.457C310.376 140.683 306.59 138.795 301.743 138.795Z" fill="#F27F22"/>
<path d="M230.724 190.885C220.787 190.885 212.574 187.717 206.086 181.381C199.597 175.044 196.353 166.889 196.354 156.916C196.354 146.949 199.598 138.796 206.086 132.458C212.574 126.12 220.787 122.953 230.724 122.958C240.658 122.958 248.9 126.125 255.452 132.461C262.003 138.797 265.275 146.949 265.269 156.919C265.269 166.896 261.996 175.051 255.451 181.384C248.905 187.717 240.663 190.884 230.724 190.885ZM230.724 138.795C225.992 138.795 222.353 140.594 219.806 144.191C217.26 147.788 215.989 152.061 215.993 157.012C215.993 161.961 217.175 166.146 219.539 169.567C222.26 173.458 225.989 175.401 230.724 175.397C235.46 175.393 239.185 173.45 241.902 169.567C244.386 166.149 245.628 161.964 245.629 157.012C245.631 152.059 244.448 147.874 242.08 144.457C239.359 140.682 235.574 138.795 230.724 138.795Z" fill="#F27F22"/>
<path d="M457.354 162.905C457.774 167.598 463.851 177.685 473.843 177.685C483.568 177.685 488.167 172.052 488.396 169.768L509.088 169.592C506.831 176.519 497.658 191.239 473.482 191.239C463.427 191.239 454.227 188.099 447.618 181.824C441.01 175.55 437.712 167.367 437.712 157.275C437.712 146.834 441.014 138.535 447.618 132.376C454.222 126.217 462.787 123.138 473.312 123.138C484.767 123.138 493.71 126.951 500.139 134.577C506.103 141.615 509.085 151.059 509.085 162.908L457.354 162.905ZM489.446 150.762C488.627 146.537 486.874 143.076 484.186 140.379C481.141 137.448 477.634 135.981 473.666 135.979C469.571 135.979 466.151 137.387 463.405 140.202C460.66 143.018 458.82 146.537 457.884 150.759L489.446 150.762Z" fill="#F27F22"/>
<path d="M133.018 120.386L152.513 106.104L152.262 105.231C117.096 109.547 101.093 112.614 70.7983 130.236L71.0785 131.038L73.4881 131.06C73.2645 133.496 72.8811 139.51 73.3748 148.554C70.0124 158.317 73.2888 164.95 76.3649 172.161C76.8505 164.649 76.7999 156.436 74.5037 148.259C74.0262 139.279 74.4207 133.37 74.6362 131.071L94.7206 131.264C94.7206 131.264 94.5881 137.355 95.3154 143.081C113.263 149.409 131.312 143.059 140.887 127.459C138.235 124.467 133.018 120.386 133.018 120.386Z" fill="#333333"/>
<path d="M514.355 191.387H512.606V182.611H509.633V181.098H517.355V182.611H514.355V191.387ZM522.889 191.387L520.029 183.411H519.916L520.002 185.251V191.387H518.308V181.098H520.969L523.756 189.076L526.642 181.098H529.202V191.387H527.396V185.398L527.482 183.442H527.368L524.368 191.392L522.889 191.387Z" fill="#333333"/>
</g>
<defs>
<clipPath id="clip0_5507_583">
<rect width="458.403" height="112.775" fill="white" transform="translate(70.7983 78.6122)"/>
</clipPath>
</defs>
</svg>
