<?xml version="1.0" encoding="UTF-8" standalone="no"?>
<svg role="img" aria-label="OneDrive"
   width="800"
   height="512.94611"
   viewBox="0 0 800 512.94611"
   version="1.1"
   xml:space="preserve"
   xmlns="http://www.w3.org/2000/svg"><defs
     id="defs18"><style
       id="style1">
      .k {
        fill: url(#g);
      }
      .k, .l {
        fill-opacity: .9;
      }
      .m {
        fill: url(#d);
      }
      .m, .n {
        fill-opacity: .4;
      }
      .o {
        fill: url(#c);
      }
      .p {
        fill: url(#h);
      }
      .q {
        fill: url(#e);
      }
      .r {
        fill: url(#b);
      }
      .l {
        fill: url(#j);
      }
      .s {
        fill: url(#f);
        fill-opacity: .6;
      }
      .n {
        fill: url(#i);
      }
    </style><radialGradient
       id="b"
       data-name="Безымянный градиент"
       cx="-446.23001"
       cy="850.23999"
       fx="-446.23001"
       fy="850.23999"
       r="6.9899998"
       gradientTransform="matrix(28.879754,32.006748,53.696458,-48.399751,-32750.77,55564.7)"
       gradientUnits="userSpaceOnUse"><stop
         offset="0"
         stop-color="#4894fe"
         id="stop1" /><stop
         offset=".7"
         stop-color="#0934b3"
         id="stop2" /></radialGradient><radialGradient
       id="c"
       data-name="Безымянный градиент 2"
       cx="-463.70999"
       cy="855.09003"
       fx="-463.70999"
       fy="855.09003"
       r="6.9899998"
       gradientTransform="matrix(-6.1474304,6.8394478,4.9027865,4.785527,-6383.7656,-660.83045)"
       gradientUnits="userSpaceOnUse"><stop
         offset=".17"
         stop-color="#23c0fe"
         id="stop3" /><stop
         offset=".53"
         stop-color="#1c91ff"
         id="stop4" /></radialGradient><radialGradient
       id="d"
       data-name="Безымянный градиент 3"
       cx="-478.67001"
       cy="847.12"
       fx="-478.67001"
       fy="847.12"
       r="6.9899998"
       gradientTransform="matrix(-1.4615592,-1.1832559,-2.5571228,3.429994,2094.7455,-3194.2993)"
       gradientUnits="userSpaceOnUse"><stop
         offset="0"
         stop-color="#fff"
         id="stop5" /><stop
         offset=".66"
         stop-color="#adc0ff"
         stop-opacity="0"
         id="stop6" /></radialGradient><radialGradient
       id="e"
       data-name="Безымянный градиент 4"
       cx="-484.89001"
       cy="847.31"
       fx="-484.89001"
       fy="847.31"
       r="6.9899998"
       gradientTransform="matrix(-1.6417706,-1.3397193,-1.9222295,2.5580384,1475.079,-2524.1514)"
       gradientUnits="userSpaceOnUse"><stop
         offset="0"
         stop-color="#033acc"
         id="stop7" /><stop
         offset="1"
         stop-color="#368eff"
         stop-opacity="0"
         id="stop8" /></radialGradient><radialGradient
       id="f"
       data-name="Безымянный градиент 5"
       cx="-454.42001"
       cy="853.17999"
       fx="-454.42001"
       fy="853.17999"
       r="6.9899998"
       gradientTransform="matrix(1.8762343,4.1758888,4.5541812,-2.2223997,-2405.5678,4063.0681)"
       gradientUnits="userSpaceOnUse"><stop
         offset=".59"
         stop-color="#3464e3"
         stop-opacity="0"
         id="stop9" /><stop
         offset="1"
         stop-color="#033acc"
         id="stop10" /></radialGradient><radialGradient
       id="g"
       data-name="Безымянный градиент 6"
       cx="-465.29999"
       cy="852.63"
       fx="-465.29999"
       fy="852.63"
       r="6.9899998"
       gradientTransform="matrix(-101.35519,93.757404,146.5162,158.24743,-171232.53,-91444.13)"
       gradientUnits="userSpaceOnUse"><stop
         offset="0"
         stop-color="#4bfde8"
         id="stop11" /><stop
         offset=".54"
         stop-color="#4bfde8"
         stop-opacity="0"
         id="stop12" /></radialGradient><linearGradient
       id="h"
       data-name="Безымянный градиент 7"
       x1="638.66998"
       y1="2.4400001"
       x2="638.66998"
       y2="421.76001"
       gradientTransform="matrix(0.04842878,0,0,-0.050491,617.18777,301.59121)"
       gradientUnits="userSpaceOnUse"><stop
         offset="0"
         stop-color="#0086ff"
         id="stop13" /><stop
         offset=".49"
         stop-color="#0bf"
         id="stop14" /></linearGradient><radialGradient
       id="i"
       data-name="Безымянный градиент 8"
       cx="-445.42001"
       cy="847.34998"
       fx="-445.42001"
       fy="847.34998"
       r="6.9899998"
       gradientTransform="matrix(2.9240188,1.1180179,1.9176284,-5.4465721,313.78533,5395.7186)"
       gradientUnits="userSpaceOnUse"><stop
         offset="0"
         stop-color="#fff"
         id="stop15" /><stop
         offset=".79"
         stop-color="#fff"
         stop-opacity="0"
         id="stop16" /></radialGradient><radialGradient
       id="j"
       data-name="Безымянный градиент 9"
       cx="-468.67001"
       cy="861.39001"
       fx="-468.67001"
       fy="861.39001"
       r="6.9899998"
       gradientTransform="matrix(-67.45933,53.77501,53.218165,66.688315,-76468.45,-32083.78)"
       gradientUnits="userSpaceOnUse"><stop
         offset="0"
         stop-color="#4bfde8"
         id="stop17" /><stop
         offset=".58"
         stop-color="#4bfde8"
         stop-opacity="0"
         id="stop18" /></radialGradient></defs><g
     id="g26"
     transform="matrix(16.518944,0,0,16.518944,-10195.283,-4467.346)"><path
       class="r"
       d="m 630.57154,275.18794 c -7.40379,0 -12.93775,5.84484 -13.35472,12.35565 0.25812,1.40315 1.10563,4.17309 2.43306,4.03121 1.65917,-0.17772 5.83858,0 9.40342,-6.22352 2.60402,-4.54621 7.96024,-10.16334 1.51824,-10.16334 z"
       id="path18"
       style="fill:#1b44b1;fill-opacity:1;stroke-width:0.0494489" /><path
       class="o"
       d="m 628.85862,277.61706 c -2.48876,3.79995 -5.83858,9.24491 -6.96939,10.95806 -1.3439,2.03682 -4.90341,1.1714 -4.60848,-1.74799 -0.0291,0.2368 -0.0513,0.47613 -0.0668,0.71646 -0.4867,7.59536 5.7577,13.9027 13.5281,13.9027 8.56415,0 28.9885,-10.29056 26.92156,-20.60134 -2.17833,-6.05993 -8.30166,-10.4072 -15.24102,-10.4072 -6.93936,0 -11.38706,3.8555 -13.56345,7.17931 z"
       id="path19"
       style="fill:url(#c);stroke-width:0.0494489" /><path
       class="m"
       d="m 628.85862,277.61706 c -2.48876,3.79995 -5.83858,9.24491 -6.96939,10.95806 -1.3439,2.03682 -4.90341,1.1714 -4.60848,-1.74799 -0.0291,0.2368 -0.0513,0.47613 -0.0668,0.71646 -0.4867,7.59536 5.7577,13.9027 13.5281,13.9027 8.56415,0 28.9885,-10.29056 26.92156,-20.60134 -2.17833,-6.05993 -8.30166,-10.4072 -15.24102,-10.4072 -6.93936,0 -11.38706,3.8555 -13.56345,7.17931 z"
       id="path20"
       style="fill:url(#d);stroke-width:0.0494489" /><path
       class="q"
       d="m 628.85862,277.61706 c -2.48876,3.79995 -5.83858,9.24491 -6.96939,10.95806 -1.3439,2.03682 -4.90341,1.1714 -4.60848,-1.74799 -0.0291,0.2368 -0.0513,0.47613 -0.0668,0.71646 -0.4867,7.59536 5.7577,13.9027 13.5281,13.9027 8.56415,0 28.9885,-10.29056 26.92156,-20.60134 -2.17833,-6.05993 -8.30166,-10.4072 -15.24102,-10.4072 -6.93936,0 -11.38706,3.8555 -13.56345,7.17931 z"
       id="path21"
       style="fill:url(#e);stroke-width:0.0494489" /><path
       class="s"
       d="m 628.85862,277.61706 c -2.48876,3.79995 -5.83858,9.24491 -6.96939,10.95806 -1.3439,2.03682 -4.90341,1.1714 -4.60848,-1.74799 -0.0291,0.2368 -0.0513,0.47613 -0.0668,0.71646 -0.4867,7.59536 5.7577,13.9027 13.5281,13.9027 8.56415,0 28.9885,-10.29056 26.92156,-20.60134 -2.17833,-6.05993 -8.30166,-10.4072 -15.24102,-10.4072 -6.93936,0 -11.38706,3.8555 -13.56345,7.17931 z"
       id="path22"
       style="fill:url(#f);stroke-width:0.0494489" /><path
       class="k"
       d="m 628.85862,277.61706 c -2.48876,3.79995 -5.83858,9.24491 -6.96939,10.95806 -1.3439,2.03682 -4.90341,1.1714 -4.60848,-1.74799 -0.0291,0.2368 -0.0513,0.47613 -0.0668,0.71646 -0.4867,7.59536 5.7577,13.9027 13.5281,13.9027 8.56415,0 28.9885,-10.29056 26.92156,-20.60134 -2.17833,-6.05993 -8.30166,-10.4072 -15.24102,-10.4072 -6.93936,0 -11.38706,3.8555 -13.56345,7.17931 z"
       id="path23"
       style="fill:#1f87f7;fill-opacity:1;stroke-width:0.0494489" /><path
       class="p"
       d="m 630.619,301.45084 c 0,0 20.44857,0.0389 23.91704,0.0389 6.29429,0 11.08051,-4.9562 11.08051,-10.73892 0,-5.78274 -4.88163,-10.70915 -11.08051,-10.70915 -6.19889,0 -9.76808,4.47199 -12.4491,9.35345 -3.14158,5.72014 -7.14906,11.98708 -11.46794,12.05574 z"
       id="path24"
       style="fill:url(#h);stroke-width:0.0494489" /><path
       class="n"
       d="m 630.619,301.45084 c 0,0 20.44857,0.0389 23.91704,0.0389 6.29429,0 11.08051,-4.9562 11.08051,-10.73892 0,-5.78274 -4.88163,-10.70915 -11.08051,-10.70915 -6.19889,0 -9.76808,4.47199 -12.4491,9.35345 -3.14158,5.72014 -7.14906,11.98708 -11.46794,12.05574 z"
       id="path25"
       style="fill:url(#i);stroke-width:0.0494489" /><path
       class="l"
       d="m 630.619,301.45084 c 0,0 20.44857,0.0389 23.91704,0.0389 6.29429,0 11.08051,-4.9562 11.08051,-10.73892 0,-5.78274 -4.88163,-10.70915 -11.08051,-10.70915 -6.19889,0 -9.76808,4.47199 -12.4491,9.35345 -3.14158,5.72014 -7.14906,11.98708 -11.46794,12.05574 z"
       id="path26"
       style="fill:#29c3ff;fill-opacity:1;stroke-width:0.0494489" /></g></svg>
